<svg width="30" height="30" viewBox="0 0 30 30" fill="none" xmlns="http://www.w3.org/2000/svg">
<path fill-rule="evenodd" clip-rule="evenodd" d="M7.93107 7.92893C7.54055 8.31946 7.54055 8.95262 7.93107 9.34315L13.588 15L7.93111 20.6569C7.54058 21.0474 7.54058 21.6806 7.93111 22.0711C8.32163 22.4616 8.9548 22.4616 9.34532 22.0711L15.0022 16.4143L20.659 22.0711C21.0495 22.4616 21.6827 22.4616 22.0732 22.0711C22.4637 21.6805 22.4637 21.0474 22.0732 20.6569L16.4164 15L22.0732 9.34319C22.4638 8.95266 22.4638 8.3195 22.0732 7.92898C21.6827 7.53845 21.0496 7.53845 20.659 7.92898L15.0022 13.5858L9.34529 7.92893C8.95476 7.53841 8.3216 7.53841 7.93107 7.92893Z" fill="white"/>
</svg>
